M48
; DRILL file {KiCad (5.1.10)-1} date 03/20/22 14:04:14
; FORMAT={3:3/ absolute / metric / suppress leading zeros}
; #@! TF.CreationDate,2022-03-20T14:04:14+03:00
; #@! TF.GenerationSoftware,Kicad,Pcbnew,(5.1.10)-1
; #@! TF.FileFunction,Plated,1,2,PTH
FMAT,2
METRIC,TZ
T1C0.300
%
G90
G05
T1
X133840Y-40090
X133900Y-36220
X133900Y-37090
X133900Y-37990
X133900Y-39070
X133900Y-41650
X133900Y-43920
X133900Y-45460
X133900Y-47000
X133900Y-48540
X133900Y-50080
X133900Y-51620
X133900Y-53160
X134080Y-54890
X134790Y-53700
X135390Y-54940
X135560Y-40090
X135660Y-43395
X136039Y-37583
X136050Y-36534
X136230Y-55620
X136410Y-46140
X136687Y-47044
X137150Y-36770
X137230Y-54910
X137300Y-44620
X137320Y-47190
X138120Y-55370
X139630Y-55720
X139750Y-46875
X140239Y-49930
X141130Y-55740
X141350Y-36525
X141460Y-52260
X141600Y-46925
X141950Y-37700
X142130Y-61790
X142150Y-43400
X142500Y-57720
X142530Y-59550
X142700Y-55750
X142950Y-46800
X142950Y-53490
X143490Y-54030
X143725Y-46150
X143915Y-51963
X144020Y-61660
X144094Y-52676
X144400Y-59640
X144470Y-55760
X144650Y-46225
X144725Y-43300
X145430Y-46470
X145600Y-58210
X145770Y-61790
X145810Y-36140
X145820Y-55650
X146665Y-59825
X147070Y-55070
X147480Y-55860
X147600Y-38700
X147650Y-38000
X147700Y-40100
X147884Y-49527
X148075Y-47725
X148100Y-54750
X148200Y-61740
X148360Y-41540
X148430Y-43070
X148581Y-48280
X148730Y-44240
X148775Y-40358
X149065Y-47535
X149150Y-39250
X149665Y-59825
X150920Y-43110
X151300Y-48225
X151330Y-61500
X151350Y-44270
X151750Y-46118
X151920Y-44890
X152250Y-49560
X152380Y-58680
X152425Y-50400
X152900Y-53975
X153815Y-59825
X154294Y-51880
X154350Y-47975
X154358Y-54965
X154575Y-47200
X154641Y-52784
X154714Y-46389
X154720Y-61640
X154850Y-45650
X155090Y-57110
X155325Y-49125
X155718Y-44568
X155919Y-48844
X156180Y-43240
X156280Y-41850
X156750Y-42500
X156759Y-49559
X156950Y-50240
X157015Y-59825
X157060Y-56610
X157310Y-41820
X157560Y-49100
X157780Y-49760
X158100Y-41890
X158100Y-49270
X158162Y-52332
X158200Y-61510
X158623Y-54425
X159181Y-41099
X159200Y-54125
X159460Y-50740
X159790Y-36320
X159877Y-45148
X160000Y-41690
X160030Y-50360
X160100Y-54040
X160255Y-59825
X160270Y-43510
X160550Y-45850
X160988Y-41508
X161275Y-45800
X161500Y-36600
X162175Y-37100
X162180Y-61690
X162425Y-37775
X165010Y-59800
X167000Y-61320
X167575Y-52575
X168100Y-54900
X168990Y-59800
X169125Y-37450
X171300Y-61450
X172475Y-59875
X174323Y-36487
X174675Y-53750
X175220Y-61810
X175330Y-55050
X176975Y-59875
X177910Y-57880
X178330Y-61930
X180050Y-56765
X180050Y-58675
X180110Y-54580
X181150Y-61230
X181740Y-58090
X182110Y-44090
X182190Y-54140
X182210Y-45140
X182210Y-46090
X182210Y-47240
X182210Y-48430
X182210Y-50000
X182230Y-51990
T0
M30
